<?xml version="1.0" encoding="UTF-8" standalone="no"?>
<!DOCTYPE svg PUBLIC "-//W3C//DTD SVG 1.1//EN" "http://www.w3.org/Graphics/SVG/1.1/DTD/svg11.dtd">
<svg width="100%" height="100%" viewBox="0 0 500 466" version="1.1" xmlns="http://www.w3.org/2000/svg" xmlns:xlink="http://www.w3.org/1999/xlink" xml:space="preserve" xmlns:serif="http://www.serif.com/" style="fill-rule:evenodd;clip-rule:evenodd;stroke-linejoin:round;stroke-miterlimit:2;">
    <g transform="matrix(3.18827,0,0,3.18827,-288.215,-247.264)">
        <path d="M130.558,103.319L149.487,88.596L152.642,92.54L182.35,77.554L183.664,89.385L195.758,83.864L202.33,102.004C247.689,107.363 253.302,133.09 242.554,167.203L243.08,171.673L236.245,172.987L237.822,196.123C242.157,210.565 238.221,218.575 229.935,223.201L111.892,223.727C94.858,218.568 93.697,208.118 101.902,194.545L100.588,174.039L94.015,174.039L96.907,166.678C80.522,132.308 96.291,106.227 130.558,103.319Z" style="fill:none;"/>
        <clipPath id="_clip1">
            <path d="M130.558,103.319L149.487,88.596L152.642,92.54L182.35,77.554L183.664,89.385L195.758,83.864L202.33,102.004C247.689,107.363 253.302,133.09 242.554,167.203L243.08,171.673L236.245,172.987L237.822,196.123C242.157,210.565 238.221,218.575 229.935,223.201L111.892,223.727C94.858,218.568 93.697,208.118 101.902,194.545L100.588,174.039L94.015,174.039L96.907,166.678C80.522,132.308 96.291,106.227 130.558,103.319Z"/>
        </clipPath>
        <g clip-path="url(#_clip1)">
            <g transform="matrix(5.17127,0,0,5.8191,-185.48,-293.371)">
                <rect x="50.265" y="61.299" width="38.068" height="28.183" style="fill:rgb(203, 181, 161);"/>
            </g>
        </g>
        <path d="M147.433,99.788L152.27,105.677C158.735,96.959 166.276,91.469 174.985,89.482L180.033,103.994L190.969,94.95C198.083,123.358 227.657,140.835 232.192,164.777C230.628,167.211 228.358,167.881 225.672,167.511C229.916,177.469 231.174,187.699 229.248,198.218L197.91,213.151C180.54,218.39 161.227,217.797 140.492,212.94L111.468,195.694C107.106,185.079 108.257,174.831 112.309,164.777L104.738,164.567L115.254,150.834L112.52,135.753L127.242,129.653C129.733,117.72 136.529,107.795 147.433,99.788Z" style="fill:white;"/>
        <g transform="matrix(2.24361e-16,0.858824,-0.88,2.29893e-16,241.994,69.3667)">
            <path d="M100.742,95.161C90.875,95.161 82.864,104.585 82.864,116.193C82.864,127.801 90.875,137.225 100.742,137.225C97.782,132.317 95.378,124.583 95.378,116.193C95.378,107.803 97.782,100.068 100.742,95.161Z" style="fill:rgb(101,56,25);"/>
        </g>
        <g transform="matrix(2.24361e-16,0.858824,-0.88,2.29893e-16,300.673,69.3667)">
            <path d="M100.742,95.161C90.875,95.161 82.864,104.585 82.864,116.193C82.864,127.801 90.875,137.225 100.742,137.225C97.782,132.317 95.378,124.583 95.378,116.193C95.378,107.803 97.782,100.068 100.742,95.161Z" style="fill:rgb(101,56,25);"/>
        </g>
        <g transform="matrix(-1,-1.17961e-16,1.44598e-16,-1.22581,261.329,332.475)">
            <path d="M122.775,136.863C125.839,132.616 127.452,127.797 127.452,122.892C127.452,107.471 111.808,94.95 92.539,94.95C73.27,94.95 57.626,107.471 57.626,122.892C57.626,127.797 59.239,132.616 62.303,136.863L122.775,136.863Z" style="fill:rgb(164,79,134);"/>
        </g>
        <path d="M136.706,185.599C157.666,178.785 179.754,178.741 202.958,185.388C200.484,203.746 192.024,216.604 168.79,215.885C148.512,216.438 136.794,207.48 136.706,185.599" style="fill:rgb(225,146,191);"/>
        <g transform="matrix(-1,1.11022e-16,-1.11022e-16,-1,342.934,324.171)">
            <path d="M176.876,146.847C177.153,144.785 177.298,142.445 177.298,140.064C177.298,132.577 175.885,126.498 174.144,126.498C172.402,126.498 170.989,132.577 170.989,140.064C170.989,142.445 171.135,144.785 171.411,146.847L176.876,146.847Z" style="fill:rgb(164,79,134);"/>
        </g>
        <g transform="matrix(1.5814,0,0,1.32394,-74.2308,-68.0798)">
            <ellipse cx="124.512" cy="206.507" rx="11.305" ry="9.333" style="fill:rgb(141,82,42);"/>
        </g>
        <g transform="matrix(1.5814,0,0,1.32394,17.2588,-68.0798)">
            <ellipse cx="124.512" cy="206.507" rx="11.305" ry="9.333" style="fill:rgb(141,82,42);"/>
        </g>
        <path d="M114.521,146.171L100.588,153.533C96.172,123.515 108.508,110.639 134.239,111.468L127.666,129.346L112.418,134.078L114.521,146.171" style="fill:rgb(141,82,42);"/>
        <clipPath id="_clip2">
            <path d="M114.521,146.171L100.588,153.533C96.172,123.515 108.508,110.639 134.239,111.468L127.666,129.346L112.418,134.078L114.521,146.171"/>
        </clipPath>
        <g clip-path="url(#_clip2)">
            <path d="M101.384,133.095C102.7,123.475 111.067,118.721 128.693,120.358L127.745,125.01C117.403,124.483 108.511,126.96 101.384,133.095Z" style="fill:rgb(101,56,25);"/>
        </g>
        <path d="M199.701,113.797C227.092,108.468 243.722,121.844 237.822,153.533L223.888,145.908L199.701,113.797Z" style="fill:rgb(141,82,42);"/>
        <clipPath id="_clip3">
            <path d="M199.701,113.797C227.092,108.468 243.722,121.844 237.822,153.533L223.888,145.908L199.701,113.797Z"/>
        </clipPath>
        <g clip-path="url(#_clip3)">
            <path d="M206.957,122.615L210.743,127.453C220.516,126.074 229.925,130.864 239.137,139.02L236.613,128.925C226.436,123.025 216.574,121.224 206.957,122.615Z" style="fill:rgb(101,56,25);"/>
        </g>
    </g>
</svg>
